<svg width="261" height="260" viewBox="0 0 261 260" fill="none" xmlns="http://www.w3.org/2000/svg">
<path d="M130.006 260C201.803 260 260.006 201.797 260.006 130C260.006 58.203 201.803 0 130.006 0C58.2088 0 0.00585938 58.203 0.00585938 130C0.00585938 201.797 58.2088 260 130.006 260Z" fill="#262D33"/>
<path d="M120.8 185.8C113.7 185.8 107.15 184.5 101.15 181.9C95.25 179.2 90.4 175.4 86.6 170.5L100.1 154.3C103 158.1 106.05 161 109.25 163C112.45 164.9 115.9 165.85 119.6 165.85C129.5 165.85 134.45 160.05 134.45 148.45V98.5H97.55V79H158.6V147.1C158.6 160.1 155.4 169.8 149 176.2C142.6 182.6 133.2 185.8 120.8 185.8Z" fill="white"/>
</svg>
