<svg width="260" height="260" viewBox="0 0 260 260" fill="none" xmlns="http://www.w3.org/2000/svg">
<path d="M130 260C201.797 260 260 201.797 260 130C260 58.203 201.797 0 130 0C58.203 0 0 58.203 0 130C0 201.797 58.203 260 130 260Z" fill="white"/>
<path d="M120.794 185.8C113.694 185.8 107.144 184.5 101.144 181.9C95.2441 179.2 90.3941 175.4 86.5941 170.5L100.094 154.3C102.994 158.1 106.044 161 109.244 163C112.444 164.9 115.894 165.85 119.594 165.85C129.494 165.85 134.444 160.05 134.444 148.45V98.5H97.5441V79H158.594V147.1C158.594 160.1 155.394 169.8 148.994 176.2C142.594 182.6 133.194 185.8 120.794 185.8Z" fill="#262D33"/>
</svg>
